<svg width="16" height="8" viewBox="0 0 16 8" fill="none" xmlns="http://www.w3.org/2000/svg">
<path d="M12.7086 7.70859L15.7086 4.70859C16.0992 4.31797 16.0992 3.68359 15.7086 3.29297L12.7086 0.292969C12.318 -0.0976562 11.6836 -0.0976562 11.293 0.292969C10.9023 0.683594 10.9023 1.31797 11.293 1.70859L12.5867 3.00234H3.41484L4.70859 1.70859C5.09922 1.31797 5.09922 0.683594 4.70859 0.292969C4.31797 -0.0976562 3.68359 -0.0976562 3.29297 0.292969L0.292969 3.29297C-0.0976562 3.68359 -0.0976562 4.31797 0.292969 4.70859L3.29297 7.70859C3.68359 8.09922 4.31797 8.09922 4.70859 7.70859C5.09922 7.31797 5.09922 6.68359 4.70859 6.29297L3.41797 5.00234H12.5898L11.2961 6.29609C10.9055 6.68672 10.9055 7.32109 11.2961 7.71172C11.6867 8.10234 12.3211 8.10234 12.7117 7.71172L12.7086 7.70859Z" fill="#A2A2A2"/>
</svg>
