<svg width="30" height="30" viewBox="0 0 30 30" fill="none" xmlns="http://www.w3.org/2000/svg">
<rect width="30" height="30" rx="10" fill="#36C0C9" fill-opacity="0.8"/>
<path d="M7.10693 8.58691C7.10693 8.04118 7.54783 7.60028 8.09356 7.60028H10.0668H12.0401H14.0133C14.559 7.60028 14.9999 8.04118 14.9999 8.58691C14.9999 9.13263 14.559 9.57353 14.0133 9.57353V14.8397C13.3905 15.7214 13.0267 16.7975 13.0267 17.9599C13.0267 18.7368 13.1901 19.4737 13.483 20.1428C12.9496 20.9105 12.0586 21.413 11.0534 21.413C9.41934 21.413 8.09356 20.0873 8.09356 18.4532V9.57353C7.54783 9.57353 7.10693 9.13263 7.10693 8.58691ZM10.0668 9.57353V12.5334H12.0401V9.57353H10.0668ZM14.0133 17.9599C14.0133 16.7823 14.4811 15.6531 15.3137 14.8204C16.1463 13.9878 17.2756 13.52 18.4531 13.52C19.6306 13.52 20.7599 13.9878 21.5926 14.8204C22.4252 15.6531 22.893 16.7823 22.893 17.9599C22.893 19.1374 22.4252 20.2667 21.5926 21.0993C20.7599 21.9319 19.6306 22.3997 18.4531 22.3997C17.2756 22.3997 16.1463 21.9319 15.3137 21.0993C14.4811 20.2667 14.0133 19.1374 14.0133 17.9599ZM20.5281 16.6248C20.337 16.4337 20.0225 16.4337 19.8313 16.6248L17.9598 18.4963L17.0749 17.6115C16.8838 17.4203 16.5693 17.4203 16.3781 17.6115C16.187 17.8026 16.187 18.1171 16.3781 18.3083L17.6114 19.5415C17.8026 19.7327 18.1171 19.7327 18.3082 19.5415L20.5281 17.3216C20.7193 17.1305 20.7193 16.816 20.5281 16.6248Z" fill="white"/>
</svg>
