<svg width="30" height="30" viewBox="0 0 30 30" fill="none" xmlns="http://www.w3.org/2000/svg">
<rect width="30" height="30" rx="10" fill="#36C0C9" fill-opacity="0.8"/>
<path d="M19.5449 7.33821C19.7587 6.84168 19.5992 6.26179 19.1607 5.94285C18.7222 5.62391 18.1241 5.6529 17.7146 6.00808L8.43635 14.1266C8.07392 14.4455 7.94344 14.9565 8.11378 15.4059C8.28413 15.8554 8.71904 16.1598 9.20108 16.1598H13.2422L10.4551 22.6618C10.2413 23.1583 10.4007 23.7382 10.8393 24.0572C11.2778 24.3761 11.8758 24.3471 12.2854 23.9919L21.5636 15.8735C21.9261 15.5545 22.0565 15.0435 21.8862 14.5941C21.7158 14.1447 21.2845 13.8439 20.7989 13.8439H16.7578L19.5449 7.33821Z" fill="white"/>
</svg>
