<svg width="30" height="30" viewBox="0 0 30 30" fill="none" xmlns="http://www.w3.org/2000/svg">
<rect width="30" height="30" rx="10" fill="#36C0C9" fill-opacity="0.8"/>
<path d="M7.47012 23.5036H22.5301C24.0701 23.5036 25.0301 21.8336 24.2601 20.5036L16.7301 7.49359C15.9601 6.16359 14.0401 6.16359 13.2701 7.49359L5.74012 20.5036C4.97012 21.8336 5.93012 23.5036 7.47012 23.5036ZM15.0001 16.5036C14.4501 16.5036 14.0001 16.0536 14.0001 15.5036V13.5036C14.0001 12.9536 14.4501 12.5036 15.0001 12.5036C15.5501 12.5036 16.0001 12.9536 16.0001 13.5036V15.5036C16.0001 16.0536 15.5501 16.5036 15.0001 16.5036ZM16.0001 20.5036H14.0001V18.5036H16.0001V20.5036Z" fill="white"/>
</svg>
