<svg width="30" height="30" viewBox="0 0 30 30" fill="none" xmlns="http://www.w3.org/2000/svg">
<rect width="30" height="30" rx="10" fill="#36C0C9" fill-opacity="0.8"/>
<path d="M16.875 7.5H13.125H12.1875C11.6689 7.5 11.25 7.91895 11.25 8.4375C11.25 8.95605 11.6689 9.375 12.1875 9.375V13.2656C12.1875 13.6113 12.0908 13.9541 11.9092 14.2471L8.73926 19.4004C8.54297 19.7227 8.4375 20.0889 8.4375 20.4668C8.4375 21.5889 9.34863 22.5 10.4707 22.5H19.5293C20.6514 22.5 21.5625 21.5889 21.5625 20.4668C21.5625 20.0918 21.457 19.7227 21.2607 19.4004L18.0908 14.25C17.9092 13.9541 17.8125 13.6143 17.8125 13.2686V9.375C18.3311 9.375 18.75 8.95605 18.75 8.4375C18.75 7.91895 18.3311 7.5 17.8125 7.5H16.875ZM14.0625 13.2656V9.375H15.9375V13.2656C15.9375 13.96 16.1309 14.6396 16.4941 15.2314L17.5049 16.875H12.4951L13.5059 15.2314C13.8691 14.6396 14.0625 13.96 14.0625 13.2656Z" fill="white"/>
</svg>
