<svg width="30" height="30" viewBox="0 0 30 30" fill="none" xmlns="http://www.w3.org/2000/svg">
<rect width="30" height="30" rx="10" fill="#36C0C9" fill-opacity="0.8"/>
<path d="M13.4812 11.4919C12.5749 12.0152 11.9643 12.9974 11.9643 14.1199H6.50349C5.83226 14.1199 5.28239 13.5738 5.36582 12.9102C5.69574 10.2518 7.10267 7.92716 9.13152 6.38371C9.66623 5.97794 10.4133 6.18272 10.7508 6.76294L13.4812 11.4919ZM14.9981 17.1537C15.5518 17.1537 16.0675 17.0058 16.515 16.7479L19.2455 21.4807C19.5792 22.0609 19.3858 22.8117 18.7676 23.0696C17.6072 23.5588 16.333 23.8281 14.9981 23.8281C13.6633 23.8281 12.3853 23.5588 11.2286 23.0696C10.6105 22.8079 10.4171 22.0609 10.7508 21.4807L13.4812 16.7479C13.9287 17.0058 14.4445 17.1537 14.9981 17.1537ZM23.4928 14.1199H18.0319C18.0319 12.9974 17.4214 12.0152 16.515 11.4919L19.2455 6.76294C19.5792 6.18272 20.33 5.97794 20.8647 6.38371C22.8974 7.92716 24.3005 10.2518 24.6342 12.9102C24.7177 13.5738 24.164 14.1199 23.4966 14.1199H23.4928ZM14.9981 12.2996C15.4809 12.2996 15.9439 12.4914 16.2853 12.8328C16.6266 13.1741 16.8184 13.6371 16.8184 14.1199C16.8184 14.6027 16.6266 15.0657 16.2853 15.407C15.9439 15.7484 15.4809 15.9402 14.9981 15.9402C14.5154 15.9402 14.0524 15.7484 13.711 15.407C13.3696 15.0657 13.1779 14.6027 13.1779 14.1199C13.1779 13.6371 13.3696 13.1741 13.711 12.8328C14.0524 12.4914 14.5154 12.2996 14.9981 12.2996Z" fill="white"/>
</svg>
