<svg width="30" height="30" viewBox="0 0 30 30" fill="none" xmlns="http://www.w3.org/2000/svg">
<rect width="30" height="30" rx="10" fill="#36C0C9" fill-opacity="0.8"/>
<path d="M8.34663 12.8863L8.66203 13.4366C8.94051 13.9231 9.39683 14.2821 9.93703 14.4364L11.8797 14.9901C12.4568 15.1545 12.8528 15.6812 12.8528 16.2818V17.6206C12.8528 17.9897 13.0608 18.3252 13.3896 18.4896C13.7184 18.654 13.9264 18.9895 13.9264 19.3586V20.6672C13.9264 21.1906 14.4264 21.5697 14.9297 21.4255C15.4699 21.2711 15.8893 20.8383 16.0268 20.2914L16.1208 19.9156C16.2617 19.3485 16.6308 18.862 17.1374 18.5735L17.4092 18.4191C17.9125 18.1339 18.2212 17.5971 18.2212 17.02V16.7415C18.2212 16.3154 18.0501 15.906 17.7481 15.6041L17.6172 15.4732C17.3153 15.1712 16.9059 15.0001 16.4798 15.0001H15.0337C14.6612 15.0001 14.2922 14.9028 13.9667 14.7183L12.8091 14.0573C12.6649 13.9734 12.5541 13.8392 12.5005 13.6815C12.3931 13.3594 12.5374 13.0104 12.8427 12.8595L13.0406 12.7588C13.2621 12.6481 13.5205 12.6279 13.7553 12.7085L14.5337 12.9668C14.8089 13.0574 15.1108 12.9534 15.2685 12.7152C15.4262 12.4803 15.4095 12.1683 15.2283 11.9502L14.772 11.4033C14.4364 11.0006 14.4398 10.4135 14.782 10.0176L15.3088 9.40354C15.6041 9.05795 15.651 8.56472 15.4262 8.17216L15.3457 8.03124C15.2283 8.02453 15.1142 8.02117 14.9968 8.02117C11.8831 8.02117 9.24249 10.0645 8.34663 12.8863ZM21.9791 15.0001C21.9791 13.7654 21.657 12.6045 21.0933 11.5945L20.2343 11.9401C19.7076 12.1515 19.4358 12.7387 19.6136 13.2755L20.1807 14.9766C20.2981 15.3256 20.5833 15.5906 20.9389 15.6779L21.9153 15.9228C21.9556 15.6208 21.9757 15.3122 21.9757 15.0001H21.9791ZM6.41064 15.0001C6.41064 12.7221 7.3156 10.5373 8.92644 8.92644C10.5373 7.3156 12.7221 6.41064 15.0001 6.41064C17.2782 6.41064 19.463 7.3156 21.0738 8.92644C22.6846 10.5373 23.5896 12.7221 23.5896 15.0001C23.5896 17.2782 22.6846 19.463 21.0738 21.0738C19.463 22.6846 17.2782 23.5896 15.0001 23.5896C12.7221 23.5896 10.5373 22.6846 8.92644 21.0738C7.3156 19.463 6.41064 17.2782 6.41064 15.0001Z" fill="white"/>
</svg>
