<svg width="30" height="30" viewBox="0 0 30 30" fill="none" xmlns="http://www.w3.org/2000/svg">
<rect width="30" height="30" rx="10" fill="#5B7E95"/>
<path d="M23.2877 11.37L22.2877 9.64C22.0077 9.16 21.3977 9 20.9177 9.27L16.9977 11.54V7C16.9977 6.45 16.5477 6 15.9977 6H13.9977C13.4477 6 12.9977 6.45 12.9977 7V11.54L9.06767 9.27C8.58767 8.99 7.97767 9.16 7.70767 9.63L6.70767 11.36C6.42767 11.84 6.58767 12.46 7.06767 12.73L10.9977 15L7.06767 17.27C6.58767 17.55 6.42767 18.16 6.69767 18.64L7.69767 20.37C7.97767 20.85 8.58767 21.01 9.06767 20.74L12.9977 18.46V23C12.9977 23.55 13.4477 24 13.9977 24H15.9977C16.5477 24 16.9977 23.55 16.9977 23V18.46L20.9277 20.73C21.4077 21.01 22.0177 20.84 22.2977 20.36L23.2977 18.63C23.5777 18.15 23.4077 17.54 22.9277 17.26L18.9977 15L22.9277 12.73C23.4077 12.46 23.5677 11.84 23.2877 11.37Z" fill="white"/>
</svg>
