<svg width="30" height="30" viewBox="0 0 30 30" fill="none" xmlns="http://www.w3.org/2000/svg">
<rect width="30" height="30" rx="10" fill="#36C0C9" fill-opacity="0.8"/>
<path d="M17.5361 7.77467C17.1699 7.40844 16.5752 7.40844 16.2089 7.77467C15.8427 8.1409 15.8427 8.73566 16.2089 9.10188L16.4843 9.37729L8.32182 17.5369C7.79445 18.0642 7.49854 18.7791 7.49854 19.5262V19.6874C7.49854 21.2402 8.75836 22.5 10.3112 22.5H10.4723C11.2194 22.5 11.9343 22.2041 12.4617 21.6767L20.6242 13.5142L20.8996 13.7896C21.2658 14.1558 21.8606 14.1558 22.2268 13.7896C22.593 13.4234 22.593 12.8286 22.2268 12.4624L21.2892 11.5249L18.4766 8.71222L17.5391 7.77467H17.5361ZM13.5135 14.9996L17.8115 10.7016L19.297 12.187L16.4843 14.9996H13.5135Z" fill="white"/>
</svg>
