<svg width="30" height="30" viewBox="0 0 30 30" fill="none" xmlns="http://www.w3.org/2000/svg">
<rect width="30" height="30" rx="10" fill="#5B7E95"/>
<path d="M13.5 15.9332H12.5C11.67 15.9332 11 15.2632 11 14.4332C11 13.6032 11.67 12.9332 12.5 12.9332H13.5V11.9332C13.5 11.1032 14.17 10.4332 15 10.4332C15.83 10.4332 16.5 11.1032 16.5 11.9332V12.9332H17.5C18.33 12.9332 19 13.6032 19 14.4332C19 15.2632 18.33 15.9332 17.5 15.9332H16.5V16.9332C16.5 17.7632 15.83 18.4332 15 18.4332C14.17 18.4332 13.5 17.7632 13.5 16.9332V15.9332ZM14.3 5.19317L8.3 7.44317C7.52 7.74317 7 8.48317 7 9.32317V14.0232C7 19.0732 10.41 23.7832 15 24.9332C19.59 23.7832 23 19.0732 23 14.0232V9.32317C23 8.49317 22.48 7.74317 21.7 7.45317L15.7 5.20317C15.25 5.02317 14.75 5.02317 14.3 5.19317Z" fill="white"/>
</svg>
