<svg width="30" height="30" viewBox="0 0 30 30" fill="none" xmlns="http://www.w3.org/2000/svg">
<rect width="30" height="30" rx="10" fill="#36C0C9" fill-opacity="0.8"/>
<path d="M12.1875 7.5C12.7061 7.5 13.125 7.91895 13.125 8.4375V9.375H16.875V8.4375C16.875 7.91895 17.2939 7.5 17.8125 7.5C18.3311 7.5 18.75 7.91895 18.75 8.4375V9.375H20.1562C20.9326 9.375 21.5625 10.0049 21.5625 10.7812V12.1875H8.4375V10.7812C8.4375 10.0049 9.06738 9.375 9.84375 9.375H11.25V8.4375C11.25 7.91895 11.6689 7.5 12.1875 7.5ZM8.4375 13.125H21.5625V21.0938C21.5625 21.8701 20.9326 22.5 20.1562 22.5H9.84375C9.06738 22.5 8.4375 21.8701 8.4375 21.0938V13.125ZM18.0762 16.4355C18.3516 16.1602 18.3516 15.7148 18.0762 15.4424C17.8008 15.1699 17.3555 15.167 17.083 15.4424L14.2998 18.2256L12.9229 16.8486C12.6475 16.5732 12.2021 16.5732 11.9297 16.8486C11.6572 17.124 11.6543 17.5693 11.9297 17.8418L13.8047 19.7168C14.0801 19.9922 14.5254 19.9922 14.7979 19.7168L18.0762 16.4355Z" fill="white"/>
</svg>
